Mythbusters S10E08 x264 iTunes 29fps M-BYTE tv-links.eu

M-BYTE is back. For all of you FPS hungry people M-BYTE recaptured his itunes bought episode at 29 fps (highest fps available at upload time).

FYI: M-BYTE says the is a slight audio offset at the end of the episode. I really looked for the offset and I didn't see it, may you are better at noticing than me. This is much higher quality than MythBusters S10E08 WEBRip XviD-NoGRP, looks great and has 29 instead of 25 fps. 

Season 10, Episode 08ΓÇô ΓÇ£Bouncing BulletΓÇ¥
Adam and Jamie take aim at a ricochet myth from the TV show Burn Notice while Kari, Tory and Grant test the Hollywood myth that if you jump when running away from an explosion, you can surf the shockwave.

      Format : MPEG-4
      Format profile : Base Media
      Codec ID : isom
      File size : 446 MiB
      Duration : 42mn 33s
      Overall bit rate : 1 466 Kbps
      Movie name : Bouncing Bullet
      Performer : MythBusters
      Genre : Nonfiction
      Recorded date : 2012
      Writing application : Lavf52.105.0
   Video #1
      ID : 1
      Format : AVC
      Format/Info : Advanced Video Codec
      Format profile : High@L3.1
      Format settings, CABAC : Yes
      Format settings, ReFrames : 3 frames
      Codec ID : avc1
      Codec ID/Info : Advanced Video Coding
      Duration : 42mn 33s
      Bit rate : 1 334 Kbps
      Width : 852 pixels
      Height : 480 pixels
      Display aspect ratio : 16:9
      Frame rate mode : Constant
      Frame rate : 29.000 fps
      Color space : YUV
      Chroma subsampling : 4:2:0
      Bit depth : 8 bits
      Scan type : Progressive
      Bits/(Pixel*Frame) : 0.112
      Stream size : 406 MiB (91%)
      Writing library : x264 core 115
      Encoding settings : cabac=1 / ref=3 / deblock=1:0:0 / analyse=0x3:0x113 / me=hex / subme=7 / psy=1 / psy_rd=1.00:0.00 / mixed_ref=1 / me_range=16 / chroma_me=1 / trellis=1 / 8x8dct=1 / cqm=0 / deadzone=21,11 / fast_pskip=1 / chroma_qp_offset=-4 / threads=1 / sliced_threads=0 / nr=0 / decimate=1 / interlaced=0 / bluray_compat=0 / constrained_intra=0 / bframes=0 / weightp=2 / keyint=250 / keyint_min=25 / scenecut=40 / intra_refresh=0 / rc=crf / mbtree=0 / crf=23.0 / qcomp=0.60 / qpmin=0 / qpmax=69 / qpstep=4 / ip_ratio=1.40 / aq=1:1.00
   Audio #2
      ID : 2
      Format : AAC
      Format/Info : Advanced Audio Codec
      Format profile : LC
      Codec ID : 40
      Duration : 42mn 33s
      Bit rate mode : Constant
      Bit rate : 128 Kbps
      Channel(s) : 2 channels
      Channel positions : Front: L R
      Sampling rate : 48.0 KHz
      Compression mode : Lossy
      Stream size : 38.9 MiB (9%)

